PathFileType	4	(X/Y/Z)	56_2_13_p0_0-231_filt_butterworth.trc
DataRate	CameraRate	NumFrames	NumMarkers	Units	OrigDataRate	OrigDataStartFrame	OrigNumFrames
59.0	59.0	7	27	m	59.0	173	231
Frame#	Time	RHip			RKnee			RAnkle			RBigToe			RSmallToe			RHeel			LHip			LKnee			LAnkle			LBigToe			LSmallToe			LHeel			Neck			Head			Nose			RShoulder			RElbow			RWrist			RThumb			RIndex			RPinky			LShoulder			LElbow			LWrist			LThumb			LIndex			LPinky			
		X1	Y1	Z1	X2	Y2	Z2	X3	Y3	Z3	X4	Y4	Z4	X5	Y5	Z5	X6	Y6	Z6	X7	Y7	Z7	X8	Y8	Z8	X9	Y9	Z9	X10	Y10	Z10	X11	Y11	Z11	X12	Y12	Z12	X13	Y13	Z13	X14	Y14	Z14	X15	Y15	Z15	X16	Y16	Z16	X17	Y17	Z17	X18	Y18	Z18	X19	Y19	Z19	X20	Y20	Z20	X21	Y21	Z21	X22	Y22	Z22	X23	Y23	Z23	X24	Y24	Z24	X25	Y25	Z25	X26	Y26	Z26	X27	Y27	Z27	
173	2.9322033898305087	0.4473235865506327	0.5265480087916257	0.9747108717823206	0.43169581754853	0.11502372192091143	0.9232886940385323	0.4731954624474299	-0.3783576691347076	1.0007255774389392	0.3791507579823239	-0.3232736180274847	0.7646793569735717	0.45969581577241736	-0.37181604403559476	0.8124743831123775	0.5003026299334454	-0.446934364409687	1.0671463066280211	0.2556797038588209	0.5079285985249932	1.0619355610405057	0.29890468209277365	0.07080240609283506	1.04848192765883	0.32715668132284986	-0.356240334138314	1.0511340497034318	0.23739760581486363	-0.34323891577588067	0.8194146749668728	0.22694838056724048	-0.39924434729838865	0.9107778140142258	0.35719186939474623	-0.4425147754471764	1.1026544497642832	0.34417284690884087	1.0541875149175854	1.0482341519562022	0.31711252624069075	1.3064721977785154	0.973329727704702	0.2867497527983106	1.18591541430231	0.9018791639311552	0.4850287861608822	0.9739306670523733	0.9583797985259004	0.6064987334907432	0.7376040497859387	0.8945283309649799	0.6929797496701129	0.5451080589718336	0.7393038119783104	0.6987481524521486	0.45025873807263095	0.6494690302400911	0.7263082075776004	0.4476045912473555	0.6546144877456812	0.7645070566434296	0.4335073264510425	0.7110557135258243	0.18990920643994647	0.9593300346721294	1.0856427359495113	0.06965434459606853	0.7391182496868133	1.0911351884984595	-0.06445588986699224	0.5019414948681558	1.100092474384291	-0.08315075181784644	0.412513570517361	1.0173355580906533	-0.13647875925265204	0.40565424081583235	1.0336144674317178	-0.11654831454276388	0.3535064266879561	1.159708025190093	
174	2.949152542372881	0.4468365614214263	0.5272164277477035	0.9733209773475044	0.43228869223718297	0.11456388736157458	0.9240148157655083	0.4731277346752485	-0.37750538877085815	0.999186481709997	0.381973119633097	-0.32748831911497	0.7673393181003396	0.46156737434358797	-0.37345275902095854	0.8136994811392764	0.4998853830774382	-0.44598237477061947	1.0666426647483458	0.25511486827561314	0.5083671490226805	1.061586485475072	0.2988332080603213	0.07046034759629421	1.0486562339161594	0.32716499507306074	-0.3557941096279078	1.0513616187419004	0.2391535888013037	-0.3443393694644019	0.819392107477205	0.22748205682441647	-0.3980470013772885	0.9073395593754452	0.35723369681695033	-0.4416752826556078	1.1027046508921654	0.3457736941658228	1.05349458029543	1.0526125939225994	0.3197380052631241	1.3066951329848049	0.9773532773637768	0.28733756856607706	1.1858245874845226	0.9018961836067406	0.485687630104626	0.9739713894276708	0.95829314562453	0.6053204794070272	0.7377226146505285	0.8931366373198765	0.6904705260206789	0.5462267736041415	0.7335617571351425	0.6902928428368399	0.4489730122161243	0.6454132495955747	0.7224293308865445	0.44569748682894256	0.6526452971533354	0.7590434590308162	0.43560848380746564	0.7028117048199614	0.19136083660219871	0.9590630666943756	1.0883310414829521	0.07175606295084314	0.7398243456351119	1.0837502917134207	-0.06287202911389987	0.5023886871879667	1.0860583328942086	-0.07712754974043654	0.41849457118411293	1.0006493295858587	-0.1319305916718846	0.4095028699789979	1.0203247210439454	-0.11128465519790842	0.3589777131964758	1.144310300132772	
175	2.9661016949152543	0.4466117814823464	0.5277363858252992	0.972238371970584	0.4328548645669952	0.11418654541609713	0.9246503781890678	0.47299246415908003	-0.37649610122126975	0.997614049229172	0.38531373973590877	-0.3324035281654514	0.7707085502334288	0.4633712971437207	-0.3751537168721986	0.8148163336807354	0.4993432615816664	-0.4450227599972664	1.0659736827097177	0.2546399272961503	0.5086441488839643	1.0614017511663805	0.29860009168869167	0.06993855220312861	1.0488520999355049	0.3271746159849375	-0.35525266638589903	1.051642292985779	0.2411237873177688	-0.3457142924505552	0.8200991750530339	0.22797224622707563	-0.3967742920304695	0.9042781879567666	0.3572601077478242	-0.4407881840849603	1.1028103327657053	0.3469250607496662	1.0517920300570502	1.056913905622542	0.3219644264219844	1.3068612316744748	0.9807102206483009	0.2878454284467655	1.1853783850305015	0.9022357490001761	0.48641975777100377	0.9740175567485787	0.9581534755568919	0.6033541457958006	0.7373178817344602	0.8916874423902779	0.6866190433394772	0.5470666248580884	0.7256772581353959	0.6800906585972049	0.44640317433611576	0.6411240128584239	0.7150677435797663	0.44346484143057685	0.6492707787030394	0.7506430699282534	0.4384222287279239	0.6920389170282676	0.19272663753028987	0.9583917614858921	1.091006325413964	0.07509265972758626	0.7393952902600839	1.077147302731109	-0.060319136415606184	0.5049140467341828	1.0662174071179171	-0.07084391849985917	0.42459006198172855	0.9807689526543457	-0.12511488431814038	0.41531092687927507	0.9982896706517301	-0.10484104791129821	0.36670169643974077	1.1219574867264785	
176	2.983050847457627	0.4467353277643467	0.5279865667035859	0.9716451528064166	0.43331636173448046	0.11385816462401277	0.9252328899852637	0.47299043656828205	-0.3755565914754006	0.9963369147524024	0.3886430258568167	-0.3371816230937256	0.7743471685967355	0.4649767342601854	-0.3768979586476074	0.8160470529887012	0.4988508534836039	-0.444247058988111	1.0653598264325894	0.2541953633219494	0.5086864720250022	1.061331568097361	0.29827630650913084	0.0692684876898172	1.0490604737671438	0.32718359255639506	-0.35460321646048	1.0519849016435985	0.24301299725602557	-0.34708223863494697	0.8213885696191088	0.2283716470648195	-0.39590140455885253	0.9023780806035476	0.357304665265083	-0.4399123321168211	1.1030056201876715	0.34763888680084354	1.0494572772839927	1.0606452744487935	0.3236488258075918	1.3070396262718607	0.9832565771470654	0.2885692590507085	1.1846469911330344	0.9031605503876702	0.4872182288172683	0.9739262570570938	0.9580883908590421	0.6007552265458318	0.736598492218369	0.8899387813772599	0.6807549509229271	0.5475770722312898	0.7162413558112101	0.6688503858182657	0.4430558591632686	0.636780384145974	0.7040688231897203	0.44098542548432373	0.6440495398807522	0.7395040651958072	0.4408893280560976	0.6799833475091337	0.193941316905585	0.9574156286284423	1.0931880566694205	0.0795796883548191	0.7376334899718979	1.0715910494453815	-0.05635168671057782	0.5095582655737549	1.041376548566382	-0.06384153534679227	0.42952051904632266	0.9592941504258605	-0.11560623974731236	0.4209662440834517	0.9700078276269462	-0.09773908188494217	0.3754768258569587	1.0934574839075317	
177	3.0	0.4471703643293948	0.5278452055690155	0.9716637144928257	0.43355219427433694	0.11359922880781781	0.9257465241845574	0.47323308165244826	-0.3747958918738428	0.9954450012615218	0.3915503852362231	-0.34114317421353163	0.7777345019613227	0.46637503619264975	-0.37867153616658283	0.8175308859476468	0.4985773570008256	-0.44381739939134335	1.0650255417991639	0.25373790944293223	0.5085426651073826	1.061353451896804	0.29789943287911014	0.06851316681140884	1.0492671601520327	0.32719065218785703	-0.3538621325594773	1.0523818947663766	0.24463360684978502	-0.3483734593936796	0.8230814436464238	0.22863541007606394	-0.39579631736277915	0.9022974196275745	0.3574077781537459	-0.439135030371457	1.103320711414971	0.34796340565211703	1.046969750852088	1.0634358988991561	0.3248286714542704	1.3071320835021487	0.9851011437725472	0.28962952152083354	1.183727199946687	0.9046522542084663	0.4879033742955562	0.9736249818965973	0.9580430970366827	0.597783429584593	0.7357941495939148	0.8879250796729898	0.6724583163404177	0.5475992026041654	0.70668735518885	0.6565188120627614	0.43996254304967763	0.631431462269213	0.6899115257776742	0.4382790550751152	0.6368540388785828	0.7257609636579756	0.4422267526180562	0.6675806352669702	0.1951061630467256	0.9562225973249161	1.0945463177437258	0.08519348517263052	0.7344427511079665	1.0678179320727095	-0.05073200247122672	0.5156520192633007	1.013733127066259	-0.0551347807388068	0.4322809766960019	0.9379231434150213	-0.10286375503252936	0.4247849552604016	0.939027313588406	-0.09021472530107774	0.3834628682684019	1.0604810570705392	
178	3.016949152542373	0.4477809956521113	0.5272480215705384	0.9722677014412695	0.4335007205862664	0.11348066446324234	0.9260418732806469	0.47366249318955156	-0.37417861890667586	0.9947975751829145	0.39381155836880277	-0.3438817091035578	0.7803140240463576	0.46764851412951863	-0.3804225838364232	0.8193477946074971	0.49854965923449857	-0.4437610676230957	1.065012883315439	0.25327057357566646	0.5083319666482824	1.0614586271413655	0.2974855465787795	0.06771413318069308	1.0494437832223613	0.3272068536587599	-0.35306566818681767	1.0528343744353834	0.24598984291097709	-0.3498305008112681	0.8251072060600205	0.22880936964471274	-0.39650846510738114	0.9041353379213742	0.35756358011492273	-0.43845215064518206	1.1037463261996623	0.34804560373000504	1.0446662997622356	1.0652199924141335	0.32577056789425596	1.3069819904422564	0.9865363441525274	0.290977147957724	1.182642466362006	0.9064621328019592	0.4883069640946676	0.9731312717232892	0.9579480308781796	0.5945654524287564	0.7350449259269788	0.8857978391763786	0.6618216815473423	0.5470010890707775	0.6987191166315991	0.6423121276051029	0.438342041857615	0.623125451832246	0.6730378329511663	0.43569543811091305	0.6273027989385697	0.7098952101189234	0.4421669551591961	0.6555837789048864	0.1962742013435939	0.954980651467935	1.0949088054991762	0.09175677458100556	0.7298125932584136	1.0667314348932555	-0.043442934146142045	0.5222044914548389	0.9855873654721927	-0.04353810815642323	0.4327216284491976	0.916888276106504	-0.08665322979947396	0.426315004600455	0.9078964889225776	-0.0818812630848324	0.38933813859018523	1.0249318475047435	
179	3.0338983050847457	0.44841140997972523	0.5262742745385902	0.9732228488255296	0.43324356003346953	0.11351467257251113	0.9259643147873241	0.47411596927397237	-0.3736066735447684	0.9941547203812818	0.3953259871799063	-0.34532838106399844	0.7817175656898893	0.46876584785416847	-0.3819618648558366	0.8214107841927815	0.49866613681910044	-0.4439629853885052	1.065204300903333	0.2528664369072049	0.5081312068705311	1.0616253610172974	0.29703286778370946	0.06688790054012567	1.0495601305649278	0.32726959803440014	-0.35226713267796306	1.0533819902114	0.2471225749886526	-0.35168995220794524	0.8274760954112652	0.22898497018566433	-0.3977636276347985	0.9072877716932628	0.35770072937988256	-0.4377650488507253	1.104197401639371	0.348086526167972	1.0427035458124134	1.0661940549052378	0.32673078038266956	1.3065521889458995	0.9877276539694417	0.29245414646931644	1.1813596301699443	0.9082955096286112	0.4883985363024066	0.9725133838307112	0.9577887463994256	0.5911349325611601	0.7344246252122262	0.8835957595817996	0.6493908940487148	0.5458009780378824	0.6935462099488322	0.6257293360223642	0.4388479607128528	0.6110738093838628	0.6536946328689317	0.4341157604754202	0.614715646992301	0.6928513700058179	0.4405941233260497	0.6451625321348198	0.19742512915612714	0.9539220103714908	1.0943539815766767	0.0989385623739539	0.7240630029976354	1.0684861954701765	-0.03433437066913396	0.5282594243905647	0.958356531165111	-0.02800130795335518	0.4312187144543047	0.8959343500493038	-0.06711320929191525	0.42560472592617815	0.8788321634768688	-0.0720202981604348	0.39291810762288415	0.9886795326932858	
